<svg xmlns="http://www.w3.org/2000/svg" xmlns:xlink="http://www.w3.org/1999/xlink" contentStyleType="text/css" height="509px" preserveAspectRatio="none" style="width:521px;height:509px;background:#FFFFFF;" version="1.1" viewBox="0 0 521 509" width="521px" zoomAndPan="magnify"><defs/><g><rect fill="#F1F1F1" height="143.418" rx="5" ry="5" style="stroke:#F1F1F1;stroke-width:1.5;" width="209.0752" x="10" y="18.0234"/><text fill="#000000" font-family="sans-serif" font-size="14" font-weight="bold" lengthAdjust="spacing" textLength="27.4941" x="15" y="33.5586">null</text><text fill="#000000" font-family="sans-serif" font-size="14" lengthAdjust="spacing" textLength="14" x="125.5156" y="33.5586">&#9216;</text><line style="stroke:#000000;stroke-width:1.0;" x1="120.5156" x2="120.5156" y1="18.0234" y2="38.5117"/><line style="stroke:#000000;stroke-width:1.0;" x1="10" x2="219.0752" y1="38.5117" y2="38.5117"/><text fill="#000000" font-family="sans-serif" font-size="14" font-weight="bold" lengthAdjust="spacing" textLength="29.4355" x="15" y="54.0469">true</text><text fill="#000000" font-family="sans-serif" font-size="14" lengthAdjust="spacing" textLength="43.5039" x="125.5156" y="54.0469">&#9745; true</text><line style="stroke:#000000;stroke-width:1.0;" x1="120.5156" x2="120.5156" y1="38.5117" y2="59"/><line style="stroke:#000000;stroke-width:1.0;" x1="10" x2="219.0752" y1="59" y2="59"/><text fill="#000000" font-family="sans-serif" font-size="14" font-weight="bold" lengthAdjust="spacing" textLength="34.7061" x="15" y="74.5352">false</text><text fill="#000000" font-family="sans-serif" font-size="14" lengthAdjust="spacing" textLength="47.9131" x="125.5156" y="74.5352">&#9744; false</text><line style="stroke:#000000;stroke-width:1.0;" x1="120.5156" x2="120.5156" y1="59" y2="79.4883"/><line style="stroke:#000000;stroke-width:1.0;" x1="10" x2="219.0752" y1="79.4883" y2="79.4883"/><text fill="#000000" font-family="sans-serif" font-size="14" font-weight="bold" lengthAdjust="spacing" textLength="100.5156" x="15" y="95.0234">JSON_Number</text><text fill="#000000" font-family="sans-serif" font-size="14" lengthAdjust="spacing" textLength="13.2891" x="125.5156" y="95.0234">&#160;&#160;&#160;</text><line style="stroke:#000000;stroke-width:1.0;" x1="120.5156" x2="120.5156" y1="79.4883" y2="99.9766"/><line style="stroke:#000000;stroke-width:1.0;" x1="10" x2="219.0752" y1="99.9766" y2="99.9766"/><text fill="#000000" font-family="sans-serif" font-size="14" font-weight="bold" lengthAdjust="spacing" textLength="86.1602" x="15" y="115.5117">JSON_String</text><text fill="#000000" font-family="sans-serif" font-size="14" lengthAdjust="spacing" textLength="32.5732" x="125.5156" y="115.5117">a
b&#13;c</text><text fill="#000000" font-family="sans-serif" font-size="14" lengthAdjust="spacing" textLength="8.8115" x="160.9531" y="115.5117">d</text><text fill="#008000" font-family="sans-serif" font-size="14" lengthAdjust="spacing" textLength="39.8809" x="174.1943" y="115.5117">TBC...</text><line style="stroke:#000000;stroke-width:1.0;" x1="120.5156" x2="120.5156" y1="99.9766" y2="120.4648"/><line style="stroke:#000000;stroke-width:1.0;" x1="10" x2="219.0752" y1="120.4648" y2="120.4648"/><text fill="#000000" font-family="sans-serif" font-size="14" font-weight="bold" lengthAdjust="spacing" textLength="89.9336" x="15" y="136">JSON_Object</text><text fill="#000000" font-family="sans-serif" font-size="14" lengthAdjust="spacing" textLength="13.2891" x="125.5156" y="136">&#160;&#160;&#160;</text><line style="stroke:#000000;stroke-width:1.0;" x1="120.5156" x2="120.5156" y1="120.4648" y2="140.9531"/><line style="stroke:#000000;stroke-width:1.0;" x1="10" x2="219.0752" y1="140.9531" y2="140.9531"/><text fill="#000000" font-family="sans-serif" font-size="14" font-weight="bold" lengthAdjust="spacing" textLength="82.5713" x="15" y="156.4883">JSON_Array</text><text fill="#000000" font-family="sans-serif" font-size="14" lengthAdjust="spacing" textLength="13.2891" x="125.5156" y="156.4883">&#160;&#160;&#160;</text><line style="stroke:#000000;stroke-width:1.0;" x1="120.5156" x2="120.5156" y1="140.9531" y2="161.4414"/><rect fill="none" height="143.418" rx="5" ry="5" style="stroke:#000000;stroke-width:1.5;" width="209.0752" x="10" y="18.0234"/><rect fill="#F1F1F1" height="61.4648" rx="5" ry="5" style="stroke:#F1F1F1;stroke-width:1.5;" width="40.2354" x="278.5" y="10"/><text fill="#000000" font-family="sans-serif" font-size="14" lengthAdjust="spacing" textLength="16.9531" x="283.5" y="25.5352">-1</text><line style="stroke:#000000;stroke-width:1.0;" x1="278.5" x2="318.7354" y1="30.4883" y2="30.4883"/><text fill="#000000" font-family="sans-serif" font-size="14" lengthAdjust="spacing" textLength="30.2354" x="283.5" y="46.0234">-1.1</text><line style="stroke:#000000;stroke-width:1.0;" x1="278.5" x2="318.7354" y1="50.9766" y2="50.9766"/><text fill="#008000" font-family="sans-serif" font-size="14" lengthAdjust="spacing" textLength="26.5918" x="283.5" y="66.5117">TBC</text><rect fill="none" height="61.4648" rx="5" ry="5" style="stroke:#000000;stroke-width:1.5;" width="40.2354" x="278.5" y="10"/><rect fill="#F1F1F1" height="81.9531" rx="5" ry="5" style="stroke:#F1F1F1;stroke-width:1.5;" width="85.2969" x="256" y="89.7324"/><text fill="#000000" font-family="sans-serif" font-size="14" font-weight="bold" lengthAdjust="spacing" textLength="10.377" x="261" y="105.2676">{}</text><text fill="#000000" font-family="sans-serif" font-size="14" lengthAdjust="spacing" textLength="13.2891" x="309.7393" y="105.2676">&#160;&#160;&#160;</text><line style="stroke:#000000;stroke-width:1.0;" x1="304.7393" x2="304.7393" y1="89.7324" y2="110.2207"/><line style="stroke:#000000;stroke-width:1.0;" x1="256" x2="341.2969" y1="110.2207" y2="110.2207"/><text fill="#000000" font-family="sans-serif" font-size="14" font-weight="bold" lengthAdjust="spacing" textLength="35.2803" x="261" y="125.7559">k_int</text><text fill="#000000" font-family="sans-serif" font-size="14" lengthAdjust="spacing" textLength="26.5576" x="309.7393" y="125.7559">123</text><line style="stroke:#000000;stroke-width:1.0;" x1="304.7393" x2="304.7393" y1="110.2207" y2="130.709"/><line style="stroke:#000000;stroke-width:1.0;" x1="256" x2="341.2969" y1="130.709" y2="130.709"/><text fill="#000000" font-family="sans-serif" font-size="14" font-weight="bold" lengthAdjust="spacing" textLength="35.8135" x="261" y="146.2441">k_str</text><text fill="#000000" font-family="sans-serif" font-size="14" lengthAdjust="spacing" textLength="23.7139" x="309.7393" y="146.2441">abc</text><line style="stroke:#000000;stroke-width:1.0;" x1="304.7393" x2="304.7393" y1="130.709" y2="151.1973"/><line style="stroke:#000000;stroke-width:1.0;" x1="256" x2="341.2969" y1="151.1973" y2="151.1973"/><text fill="#000000" font-family="sans-serif" font-size="14" font-weight="bold" lengthAdjust="spacing" textLength="38.7393" x="261" y="166.7324">k_obj</text><text fill="#000000" font-family="sans-serif" font-size="14" lengthAdjust="spacing" textLength="13.2891" x="309.7393" y="166.7324">&#160;&#160;&#160;</text><line style="stroke:#000000;stroke-width:1.0;" x1="304.7393" x2="304.7393" y1="151.1973" y2="171.6855"/><rect fill="none" height="81.9531" rx="5" ry="5" style="stroke:#000000;stroke-width:1.5;" width="85.2969" x="256" y="89.7324"/><rect fill="#F1F1F1" height="15" rx="5" ry="5" style="stroke:#F1F1F1;stroke-width:1.5;" width="30" x="399" y="92.2324"/><rect fill="none" height="15" rx="5" ry="5" style="stroke:#000000;stroke-width:1.5;" width="30" x="399" y="92.2324"/><rect fill="#F1F1F1" height="20.4883" rx="5" ry="5" style="stroke:#F1F1F1;stroke-width:1.5;" width="36.1055" x="389" y="126.4883"/><text fill="#000000" font-family="sans-serif" font-size="14" font-weight="bold" lengthAdjust="spacing" textLength="8.8594" x="394" y="142.0234">k</text><text fill="#000000" font-family="sans-serif" font-size="14" lengthAdjust="spacing" textLength="7.2461" x="412.8594" y="142.0234">v</text><line style="stroke:#000000;stroke-width:1.0;" x1="407.8594" x2="407.8594" y1="126.4883" y2="146.9766"/><rect fill="none" height="20.4883" rx="5" ry="5" style="stroke:#000000;stroke-width:1.5;" width="36.1055" x="389" y="126.4883"/><rect fill="#F1F1F1" height="102.4414" rx="5" ry="5" style="stroke:#F1F1F1;stroke-width:1.5;" width="23.2891" x="287" y="207.5117"/><text fill="#000000" font-family="sans-serif" font-size="14" lengthAdjust="spacing" textLength="13.2891" x="292" y="223.0469">&#160;&#160;&#160;</text><line style="stroke:#000000;stroke-width:1.0;" x1="287" x2="310.2891" y1="228" y2="228"/><text fill="#000000" font-family="sans-serif" font-size="14" lengthAdjust="spacing" textLength="13.2891" x="292" y="243.5352">&#160;&#160;&#160;</text><line style="stroke:#000000;stroke-width:1.0;" x1="287" x2="310.2891" y1="248.4883" y2="248.4883"/><text fill="#000000" font-family="sans-serif" font-size="14" lengthAdjust="spacing" textLength="13.2891" x="292" y="264.0234">&#160;&#160;&#160;</text><line style="stroke:#000000;stroke-width:1.0;" x1="287" x2="310.2891" y1="268.9766" y2="268.9766"/><text fill="#000000" font-family="sans-serif" font-size="14" lengthAdjust="spacing" textLength="13.2891" x="292" y="284.5117">&#160;&#160;&#160;</text><line style="stroke:#000000;stroke-width:1.0;" x1="287" x2="310.2891" y1="289.4648" y2="289.4648"/><text fill="#000000" font-family="sans-serif" font-size="14" lengthAdjust="spacing" textLength="13.2891" x="292" y="305">&#160;&#160;&#160;</text><rect fill="none" height="102.4414" rx="5" ry="5" style="stroke:#000000;stroke-width:1.5;" width="23.2891" x="287" y="207.5117"/><rect fill="#F1F1F1" height="15" rx="5" ry="5" style="stroke:#F1F1F1;stroke-width:1.5;" width="30" x="399" y="165.2324"/><rect fill="none" height="15" rx="5" ry="5" style="stroke:#000000;stroke-width:1.5;" width="30" x="399" y="165.2324"/><rect fill="#F1F1F1" height="40.9766" rx="5" ry="5" style="stroke:#F1F1F1;stroke-width:1.5;" width="57.9131" x="378" y="198.2324"/><text fill="#000000" font-family="sans-serif" font-size="14" lengthAdjust="spacing" textLength="43.5039" x="383" y="213.7676">&#9745; true</text><line style="stroke:#000000;stroke-width:1.0;" x1="378" x2="435.9131" y1="218.7207" y2="218.7207"/><text fill="#000000" font-family="sans-serif" font-size="14" lengthAdjust="spacing" textLength="47.9131" x="383" y="234.2559">&#9744; false</text><rect fill="none" height="40.9766" rx="5" ry="5" style="stroke:#000000;stroke-width:1.5;" width="57.9131" x="378" y="198.2324"/><rect fill="#F1F1F1" height="40.9766" rx="5" ry="5" style="stroke:#F1F1F1;stroke-width:1.5;" width="26.9531" x="393.5" y="257.2324"/><text fill="#000000" font-family="sans-serif" font-size="14" lengthAdjust="spacing" textLength="16.9531" x="398.5" y="272.7676">-1</text><line style="stroke:#000000;stroke-width:1.0;" x1="393.5" x2="420.4531" y1="277.7207" y2="277.7207"/><text fill="#000000" font-family="sans-serif" font-size="14" lengthAdjust="spacing" textLength="8.8525" x="398.5" y="293.2559">1</text><rect fill="none" height="40.9766" rx="5" ry="5" style="stroke:#000000;stroke-width:1.5;" width="26.9531" x="393.5" y="257.2324"/><rect fill="#F1F1F1" height="61.4648" rx="5" ry="5" style="stroke:#F1F1F1;stroke-width:1.5;" width="18.8115" x="397.5" y="316"/><text fill="#000000" font-family="sans-serif" font-size="14" lengthAdjust="spacing" textLength="7.7314" x="402.5" y="331.5352">a</text><line style="stroke:#000000;stroke-width:1.0;" x1="397.5" x2="416.3115" y1="336.4883" y2="336.4883"/><text fill="#000000" font-family="sans-serif" font-size="14" lengthAdjust="spacing" textLength="8.8115" x="402.5" y="352.0234">b</text><line style="stroke:#000000;stroke-width:1.0;" x1="397.5" x2="416.3115" y1="356.9766" y2="356.9766"/><text fill="#000000" font-family="sans-serif" font-size="14" lengthAdjust="spacing" textLength="7.1709" x="402.5" y="372.5117">c</text><rect fill="none" height="61.4648" rx="5" ry="5" style="stroke:#000000;stroke-width:1.5;" width="18.8115" x="397.5" y="316"/><rect fill="#F1F1F1" height="102.4414" rx="5" ry="5" style="stroke:#F1F1F1;stroke-width:1.5;" width="53.5039" x="380" y="395.5117"/><text fill="#000000" font-family="sans-serif" font-size="14" lengthAdjust="spacing" textLength="25.7031" x="385" y="411.0469">mix</text><line style="stroke:#000000;stroke-width:1.0;" x1="380" x2="433.5039" y1="416" y2="416"/><text fill="#000000" font-family="sans-serif" font-size="14" lengthAdjust="spacing" textLength="14" x="385" y="431.5352">&#9216;</text><line style="stroke:#000000;stroke-width:1.0;" x1="380" x2="433.5039" y1="436.4883" y2="436.4883"/><text fill="#000000" font-family="sans-serif" font-size="14" lengthAdjust="spacing" textLength="43.5039" x="385" y="452.0234">&#9745; true</text><line style="stroke:#000000;stroke-width:1.0;" x1="380" x2="433.5039" y1="456.9766" y2="456.9766"/><text fill="#000000" font-family="sans-serif" font-size="14" lengthAdjust="spacing" textLength="8.8525" x="385" y="472.5117">1</text><line style="stroke:#000000;stroke-width:1.0;" x1="380" x2="433.5039" y1="477.4648" y2="477.4648"/><text fill="#000000" font-family="sans-serif" font-size="14" lengthAdjust="spacing" textLength="13.2891" x="385" y="493">&#160;&#160;&#160;</text><rect fill="none" height="102.4414" rx="5" ry="5" style="stroke:#000000;stroke-width:1.5;" width="53.5039" x="380" y="395.5117"/><rect fill="#F1F1F1" height="20.4883" rx="5" ry="5" style="stroke:#F1F1F1;stroke-width:1.5;" width="36.1055" x="473" y="477.4883"/><text fill="#000000" font-family="sans-serif" font-size="14" font-weight="bold" lengthAdjust="spacing" textLength="8.8594" x="478" y="493.0234">k</text><text fill="#000000" font-family="sans-serif" font-size="14" lengthAdjust="spacing" textLength="7.2461" x="496.8594" y="493.0234">v</text><line style="stroke:#000000;stroke-width:1.0;" x1="491.8594" x2="491.8594" y1="477.4883" y2="497.9766"/><rect fill="none" height="20.4883" rx="5" ry="5" style="stroke:#000000;stroke-width:1.5;" width="36.1055" x="473" y="477.4883"/><path d="M207,89.7324 L220,89.7324 C239.8701,89.7324 258.8264,78.1897 273.0752,66.3088 " fill="none" style="stroke:#000000;stroke-width:1.0;stroke-dasharray:3.0,3.0;"/><path d="M275.1071,68.6317 L274.8174,64.7848 L271.0432,63.9858 L278.8825,61.2289 L275.1071,68.6317 " fill="#000000" style="stroke:#000000;stroke-width:1.0;"/><ellipse cx="207" cy="89.7324" fill="#000000" rx="3" ry="3" style="stroke:#000000;stroke-width:1.0;"/><path d="M329,99.7324 L342,99.7324 C359.0856,99.7324 378.7169,99.7324 391.7902,99.7324 " fill="none" style="stroke:#000000;stroke-width:1.0;stroke-dasharray:3.0,3.0;"/><path d="M391.7902,102.753 L394.0556,99.7324 L391.7902,96.7119 L399.3415,99.7324 L391.7902,102.753 " fill="#000000" style="stroke:#000000;stroke-width:1.0;"/><ellipse cx="329" cy="99.7324" fill="#000000" rx="3" ry="3" style="stroke:#000000;stroke-width:1.0;"/><path d="M329,161.7324 L342,161.7324 C356.222,161.7324 371.0883,156.3828 382.9595,150.6328 " fill="none" style="stroke:#000000;stroke-width:1.0;stroke-dasharray:3.0,3.0;"/><path d="M384.3945,153.4216 L385.0511,149.5566 L381.5244,147.8441 L389.9314,147.0452 L384.3945,153.4216 " fill="#000000" style="stroke:#000000;stroke-width:1.0;"/><ellipse cx="329" cy="161.7324" fill="#000000" rx="3" ry="3" style="stroke:#000000;stroke-width:1.0;"/><path d="M207,130.7324 L220,130.7324 C229.2961,130.7324 239.2155,130.7324 248.7553,130.7324 " fill="none" style="stroke:#000000;stroke-width:1.0;stroke-dasharray:3.0,3.0;"/><path d="M248.7553,133.7525 L251.0204,130.7324 L248.7553,127.7123 L256.3056,130.7324 L248.7553,133.7525 " fill="#000000" style="stroke:#000000;stroke-width:1.0;"/><ellipse cx="207" cy="130.7324" fill="#000000" rx="3" ry="3" style="stroke:#000000;stroke-width:1.0;"/><path d="M299,217.7324 L312,217.7324 C320.6456,217.7324 368.6628,192.8629 392.7351,180.1003 " fill="none" style="stroke:#000000;stroke-width:1.0;stroke-dasharray:3.0,3.0;"/><path d="M394.1476,182.7531 L394.7247,179.0409 L391.3227,177.4475 L399.3671,176.5691 L394.1476,182.7531 " fill="#000000" style="stroke:#000000;stroke-width:1.0;"/><ellipse cx="299" cy="217.7324" fill="#000000" rx="3" ry="3" style="stroke:#000000;stroke-width:1.0;"/><path d="M299,238.7324 L312,238.7324 C331.8092,238.7324 353.4578,234.4741 371.0306,229.8874 " fill="none" style="stroke:#000000;stroke-width:1.0;stroke-dasharray:3.0,3.0;"/><path d="M371.8204,232.7931 L373.2099,229.295 L370.2408,226.9816 L378.2951,227.9129 L371.8204,232.7931 " fill="#000000" style="stroke:#000000;stroke-width:1.0;"/><ellipse cx="299" cy="238.7324" fill="#000000" rx="3" ry="3" style="stroke:#000000;stroke-width:1.0;"/><path d="M299,258.7324 L312,258.7324 C338.1805,258.7324 367.6545,265.8282 386.6192,271.3471 " fill="none" style="stroke:#000000;stroke-width:1.0;stroke-dasharray:3.0,3.0;"/><path d="M385.7517,274.2287 L388.7804,271.9976 L387.4866,268.4654 L393.8233,273.5157 L385.7517,274.2287 " fill="#000000" style="stroke:#000000;stroke-width:1.0;"/><ellipse cx="299" cy="258.7324" fill="#000000" rx="3" ry="3" style="stroke:#000000;stroke-width:1.0;"/><path d="M299,278.7324 L312,278.7324 C346.2535,278.7324 376.5687,308.5319 393.149,328.6771 " fill="none" style="stroke:#000000;stroke-width:1.0;stroke-dasharray:3.0,3.0;"/><path d="M390.7897,330.5546 L394.5571,330.4466 L395.5083,326.7995 L397.8428,334.5754 L390.7897,330.5546 " fill="#000000" style="stroke:#000000;stroke-width:1.0;"/><ellipse cx="299" cy="278.7324" fill="#000000" rx="3" ry="3" style="stroke:#000000;stroke-width:1.0;"/><path d="M422.5,487.7324 L435.5,487.7324 C445.347,487.7324 456.1857,487.7324 465.6192,487.7324 " fill="none" style="stroke:#000000;stroke-width:1.0;stroke-dasharray:3.0,3.0;"/><path d="M465.6192,490.7488 L467.8815,487.7324 L465.6192,484.716 L473.1602,487.7324 L465.6192,490.7488 " fill="#000000" style="stroke:#000000;stroke-width:1.0;"/><ellipse cx="422.5" cy="487.7324" fill="#000000" rx="3" ry="3" style="stroke:#000000;stroke-width:1.0;"/><path d="M299,297.7324 L299,310.7324 C299,359.8273 342.6485,401.5755 374.3193,425.4055 " fill="none" style="stroke:#000000;stroke-width:1.0;stroke-dasharray:3.0,3.0;"/><path d="M372.5097,427.8687 L376.1667,426.7627 L376.1289,422.9423 L380.4772,429.9295 L372.5097,427.8687 " fill="#000000" style="stroke:#000000;stroke-width:1.0;"/><ellipse cx="299" cy="297.7324" fill="#000000" rx="3" ry="3" style="stroke:#000000;stroke-width:1.0;"/><path d="M207,150.7324 L220,150.7324 C239.5673,150.7324 267.3432,197.9127 283.9288,229.9057 " fill="none" style="stroke:#000000;stroke-width:1.0;stroke-dasharray:3.0,3.0;"/><path d="M281.1402,231.3308 L284.9976,231.9971 L286.7173,228.4806 L287.4915,236.877 L281.1402,231.3308 " fill="#000000" style="stroke:#000000;stroke-width:1.0;"/><ellipse cx="207" cy="150.7324" fill="#000000" rx="3" ry="3" style="stroke:#000000;stroke-width:1.0;"/><!--SRC=[xL5HRzem47xthpZvPQq4eM7Lw2A4QEasZHMe5jeNWYh7c3IGd97ZHEjG_dlF0OQqzxtjnUVlk-y- - -w6XHN6RWgDxCDQQwiCH1XXFnwyMhihWau7TQBKrfFOxyG3wATv4fnIQw_CCucUr7bdgh-HxBOIvEVjC27fsUEFp7b4oFQCOvbbF00NMenRKof2BX1QYwnmi8c4n-5i-Z8jyrWPOXTjlmLjtwEJzwNEj0aIenGEvdSZlZp9GsjIJ4ZEHOHnP6HaL_2ttFCyVYgOnHibBHNi6G3Vr-vMjznz-vAYI_ZTZqTSMDCunv8V6HrlN07VEhxYDQjFlhV6Y3SEz6zIBfPElsZwFBHt85nB_k7A1QV6OdT8VgJoz1VXPbQ76G7fpuyjsPBLRAXmrIoI3SzB_J_fVphfnqoWVPeyGALCaMe4t-jUTQ-ztaKeB8Hg1rSzy3y7_atWzs0Kpi6bBzd5vFiS2bqQgM2LKfDfN5gglsHZKGduMQ9DSnN0RATmVF_ZHC0Nh5AZCLTesVXvSXPykcxVfUv5Gp-1vmcxLsjHPfOgf5xHVW9ucdzjtx07WKaf4lB-_Sf6cdpDMm2ZwJi0]--></g></svg>